<svg class="rt-map" viewBox="0 0 900 640" xmlns="http://www.w3.org/2000/svg" role="img" aria-label="Schematic route map of Billa Surgam Caves">
<defs>
<linearGradient id="bg-billasurgamcaves" x1="0" y1="0" x2="0" y2="1"><stop offset="0" stop-color="#16161a"/><stop offset="1" stop-color="#0a0a0b"/></linearGradient>
<filter id="glow-billasurgamcaves" x="-20%" y="-20%" width="140%" height="140%"><feGaussianBlur stdDeviation="6" result="b"/><feMerge><feMergeNode in="b"/><feMergeNode in="SourceGraphic"/></feMerge></filter>
<pattern id="grid-billasurgamcaves" width="40" height="40" patternUnits="userSpaceOnUse"><path d="M40 0H0V40" fill="none" stroke="#ffffff" stroke-opacity="0.04"/></pattern>
</defs>
<style>
.rt-map .seg rect{fill:#111113;stroke:#5b9aff;stroke-opacity:.55}
.rt-map .seg text{fill:#cfe0ff;font:500 12px/1 ui-monospace,Menlo,Consolas,monospace;text-anchor:middle}
.rt-map .lbg{fill:#111113;fill-opacity:.94;stroke:#ffffff;stroke-opacity:.1}
.rt-map .lbl{fill:#f0efe9;font:600 14px/1 system-ui,-apple-system,Segoe UI,sans-serif}
.rt-map .pin{fill:#c8ff00;stroke:#0a0a0b;stroke-width:3}
.rt-map .num{fill:#0a0a0b;font:800 13px/1 system-ui,-apple-system,Segoe UI,sans-serif}
.rt-map .lt{fill:#c8ff00;font:italic 400 19px/1 Georgia,"Times New Roman",serif}
.rt-map .lg{fill:#f0efe9;font:500 12.5px/1 system-ui,-apple-system,Segoe UI,sans-serif}
.rt-map .lnum{fill:#c8ff00;font-weight:700}
.rt-map .sk{fill:rgba(240,239,233,.5);font:500 10.5px/1 ui-monospace,Menlo,Consolas,monospace;letter-spacing:.08em;text-transform:uppercase}
.rt-map .sv{fill:#f0efe9;font:700 19px/1 system-ui,-apple-system,Segoe UI,sans-serif}
.rt-map .panel{fill:#111113;fill-opacity:.9;stroke:#ffffff;stroke-opacity:.1}
</style>
<rect width="900" height="640" rx="16" fill="url(#bg-billasurgamcaves)"/>
<rect width="900" height="640" rx="16" fill="url(#grid-billasurgamcaves)"/>
<path d="M 425.8 462.0 C 418.4 428.5, 398.7 329.3, 384.4 276.0 C 370.1 222.6, 335.4 195.0, 346.3 165.5 C 357.2 136.0, 407.5 117.6, 445.1 112.0 C 482.6 106.4, 535.2 130.2, 555.0 134.3" fill="none" stroke="#5b9aff" stroke-width="14" stroke-opacity=".3" stroke-linecap="round" stroke-linejoin="round" filter="url(#glow-billasurgamcaves)"/>
<path d="M 425.8 462.0 C 418.4 428.5, 398.7 329.3, 384.4 276.0 C 370.1 222.6, 335.4 195.0, 346.3 165.5 C 357.2 136.0, 407.5 117.6, 445.1 112.0 C 482.6 106.4, 535.2 130.2, 555.0 134.3" fill="none" stroke="#8ab8ff" stroke-width="5" stroke-linecap="round" stroke-linejoin="round"/>
<path d="M 425.8 462.0 C 418.4 428.5, 398.7 329.3, 384.4 276.0 C 370.1 222.6, 335.4 195.0, 346.3 165.5 C 357.2 136.0, 407.5 117.6, 445.1 112.0 C 482.6 106.4, 535.2 130.2, 555.0 134.3" fill="none" stroke="#ffffff" stroke-width="1.6" stroke-dasharray="7 9" stroke-linecap="round" stroke-opacity=".8"/>
<g class="seg"><rect x="351.7" y="363.2" width="60" height="22" rx="11"/><text x="381.7" y="378.2">~210 km</text></g><g class="seg"><rect x="303.2" y="220.8" width="60" height="22" rx="11"/><text x="333.2" y="235.8">~52 km</text></g><g class="seg"><rect x="349.5" y="97.9" width="60" height="22" rx="11"/><text x="379.5" y="112.9">~43 km</text></g><g class="seg"><rect x="476.8" y="78.8" width="60" height="22" rx="11"/><text x="506.8" y="93.8">~40 km</text></g>
<g class="node"><rect x="377.0" y="481.0" width="97.6" height="26" rx="13" class="lbg"/><text x="425.8" y="499.0" text-anchor="middle" class="lbl">Bengaluru</text><circle cx="425.8" cy="462.0" r="13" class="pin"/><text x="425.8" y="466.5" text-anchor="middle" class="num">1</text></g><g class="node"><rect x="335.6" y="295.0" width="97.6" height="26" rx="13" class="lbg"/><text x="384.4" y="313.0" text-anchor="middle" class="lbl">Anantapur</text><circle cx="384.4" cy="276.0" r="13" class="pin"/><text x="384.4" y="280.5" text-anchor="middle" class="num">2</text></g><g class="node"><rect x="314.3" y="184.5" width="64.0" height="26" rx="13" class="lbg"/><text x="346.3" y="202.5" text-anchor="middle" class="lbl">Gooty</text><circle cx="346.3" cy="165.5" r="13" class="pin"/><text x="346.3" y="170.0" text-anchor="middle" class="num">3</text></g><g class="node"><rect x="413.1" y="131.0" width="64.0" height="26" rx="13" class="lbg"/><text x="445.1" y="149.0" text-anchor="middle" class="lbl">Dhone</text><circle cx="445.1" cy="112.0" r="13" class="pin"/><text x="445.1" y="116.5" text-anchor="middle" class="num">4</text></g><g class="node"><rect x="570.0" y="115.1" width="173.2" height="26" rx="13" class="lbg"/><text x="579.0" y="133.1" text-anchor="start" class="lbl">Billa Surgam Caves</text><circle cx="555.0" cy="134.3" r="13" class="pin"/><text x="555.0" y="138.8" text-anchor="middle" class="num">5</text></g>
<g><rect x="695" y="18" width="190" height="131" rx="12" class="panel"/><text x="710" y="42" class="lt">Road Trip Route</text><text y="66" class="lg"><tspan x="710" dy="0"><tspan class="lnum">1</tspan>  Bengaluru</tspan><tspan x="710" dy="17"><tspan class="lnum">2</tspan>  Anantapur</tspan><tspan x="710" dy="17"><tspan class="lnum">3</tspan>  Gooty</tspan><tspan x="710" dy="17"><tspan class="lnum">4</tspan>  Dhone</tspan><tspan x="710" dy="17"><tspan class="lnum">5</tspan>  Billa Surgam Caves</tspan></text>
<g transform="translate(860,44)"><circle r="14" fill="none" stroke="#fff" stroke-opacity=".4"/><path d="M0-10l5 10-5-4-5 4z" fill="#c8ff00"/><text y="-17" text-anchor="middle" fill="#f0efe9" font-size="10" font-weight="700">N</text></g></g>
<rect x="10" y="536" width="362" height="66" rx="12" class="panel"/>
<g transform="translate(18,562)"><text class="sk" y="0">Each way</text><text class="sv" y="26">345 km</text></g><g transform="translate(136,562)"><text class="sk" y="0">Ride time</text><text class="sv" y="26">~6 hrs</text></g><g transform="translate(254,562)"><text class="sk" y="0">Difficulty</text><text class="sv" y="26">Demanding</text></g>
</svg>