<svg class="rt-map" viewBox="0 0 900 640" xmlns="http://www.w3.org/2000/svg" role="img" aria-label="Schematic route map of Kailasagiri Cave Temple &amp; Kaiwara">
<defs>
<linearGradient id="bg-kailasagirikaiwararide" x1="0" y1="0" x2="0" y2="1"><stop offset="0" stop-color="#16161a"/><stop offset="1" stop-color="#0a0a0b"/></linearGradient>
<filter id="glow-kailasagirikaiwararide" x="-20%" y="-20%" width="140%" height="140%"><feGaussianBlur stdDeviation="6" result="b"/><feMerge><feMergeNode in="b"/><feMergeNode in="SourceGraphic"/></feMerge></filter>
<pattern id="grid-kailasagirikaiwararide" width="40" height="40" patternUnits="userSpaceOnUse"><path d="M40 0H0V40" fill="none" stroke="#ffffff" stroke-opacity="0.04"/></pattern>
</defs>
<style>
.rt-map .seg rect{fill:#111113;stroke:#5b9aff;stroke-opacity:.55}
.rt-map .seg text{fill:#cfe0ff;font:500 12px/1 ui-monospace,Menlo,Consolas,monospace;text-anchor:middle}
.rt-map .lbg{fill:#111113;fill-opacity:.94;stroke:#ffffff;stroke-opacity:.1}
.rt-map .lbl{fill:#f0efe9;font:600 14px/1 system-ui,-apple-system,Segoe UI,sans-serif}
.rt-map .pin{fill:#c8ff00;stroke:#0a0a0b;stroke-width:3}
.rt-map .num{fill:#0a0a0b;font:800 13px/1 system-ui,-apple-system,Segoe UI,sans-serif}
.rt-map .lt{fill:#c8ff00;font:italic 400 19px/1 Georgia,"Times New Roman",serif}
.rt-map .lg{fill:#f0efe9;font:500 12.5px/1 system-ui,-apple-system,Segoe UI,sans-serif}
.rt-map .lnum{fill:#c8ff00;font-weight:700}
.rt-map .sk{fill:rgba(240,239,233,.5);font:500 10.5px/1 ui-monospace,Menlo,Consolas,monospace;letter-spacing:.08em;text-transform:uppercase}
.rt-map .sv{fill:#f0efe9;font:700 19px/1 system-ui,-apple-system,Segoe UI,sans-serif}
.rt-map .panel{fill:#111113;fill-opacity:.9;stroke:#ffffff;stroke-opacity:.1}
</style>
<rect width="900" height="640" rx="16" fill="url(#bg-kailasagirikaiwararide)"/>
<rect width="900" height="640" rx="16" fill="url(#grid-kailasagirikaiwararide)"/>
<path d="M 258.9 462.0 C 276.4 495.2, 306.5 476.5, 375.7 443.4 C 444.9 410.3, 617.0 302.7, 643.2 278.0 C 669.5 253.3, 537.3 336.1, 521.4 306.2 C 505.5 276.3, 549.0 129.5, 555.0 112.0 C 561.0 94.5, 604.8 182.6, 555.0 209.0 C 505.2 235.5, 331.8 213.6, 278.5 259.1 C 225.3 304.6, 241.4 428.8, 258.9 462.0" fill="none" stroke="#5b9aff" stroke-width="14" stroke-opacity=".3" stroke-linecap="round" stroke-linejoin="round" filter="url(#glow-kailasagirikaiwararide)"/>
<path d="M 258.9 462.0 C 276.4 495.2, 306.5 476.5, 375.7 443.4 C 444.9 410.3, 617.0 302.7, 643.2 278.0 C 669.5 253.3, 537.3 336.1, 521.4 306.2 C 505.5 276.3, 549.0 129.5, 555.0 112.0 C 561.0 94.5, 604.8 182.6, 555.0 209.0 C 505.2 235.5, 331.8 213.6, 278.5 259.1 C 225.3 304.6, 241.4 428.8, 258.9 462.0" fill="none" stroke="#8ab8ff" stroke-width="5" stroke-linecap="round" stroke-linejoin="round"/>
<path d="M 258.9 462.0 C 276.4 495.2, 306.5 476.5, 375.7 443.4 C 444.9 410.3, 617.0 302.7, 643.2 278.0 C 669.5 253.3, 537.3 336.1, 521.4 306.2 C 505.5 276.3, 549.0 129.5, 555.0 112.0 C 561.0 94.5, 604.8 182.6, 555.0 209.0 C 505.2 235.5, 331.8 213.6, 278.5 259.1 C 225.3 304.6, 241.4 428.8, 258.9 462.0" fill="none" stroke="#ffffff" stroke-width="1.6" stroke-dasharray="7 9" stroke-linecap="round" stroke-opacity=".8"/>
<g class="seg"><rect x="298.6" y="512.8" width="60" height="22" rx="11"/><text x="328.6" y="527.8">~25 km</text></g><g class="seg"><rect x="492.1" y="370.1" width="60" height="22" rx="11"/><text x="522.1" y="385.1">~30 km</text></g><g class="seg"><rect x="568.6" y="351.2" width="60" height="22" rx="11"/><text x="598.6" y="366.2">~22 km</text></g><g class="seg"><rect x="610.7" y="215.8" width="60" height="22" rx="11"/><text x="640.7" y="230.8">~8 km</text></g><g class="seg"><rect x="629.0" y="149.5" width="60" height="22" rx="11"/><text x="659.0" y="164.5">~8 km</text></g><g class="seg"><rect x="382.5" y="199.4" width="60" height="22" rx="11"/><text x="412.5" y="214.4">~50 km</text></g><g class="seg"><rect x="214.8" y="347.2" width="60" height="22" rx="11"/><text x="244.8" y="362.2">~40 km</text></g>
<g class="node"><rect x="210.1" y="481.0" width="97.6" height="26" rx="13" class="lbg"/><text x="258.9" y="499.0" text-anchor="middle" class="lbl">Bangalore</text><circle cx="258.9" cy="462.0" r="13" class="pin"/><text x="258.9" y="466.5" text-anchor="middle" class="num">1</text></g><g class="node"><rect x="335.3" y="462.4" width="80.8" height="26" rx="13" class="lbg"/><text x="375.7" y="480.4" text-anchor="middle" class="lbl">Hoskote</text><circle cx="375.7" cy="443.4" r="13" class="pin"/><text x="375.7" y="447.9" text-anchor="middle" class="num">2</text></g><g class="node"><rect x="602.8" y="297.0" width="80.8" height="26" rx="13" class="lbg"/><text x="643.2" y="315.0" text-anchor="middle" class="lbl">H Cross</text><circle cx="643.2" cy="278.0" r="13" class="pin"/><text x="643.2" y="282.5" text-anchor="middle" class="num">3</text></g><g class="node"><rect x="481.0" y="325.2" width="80.8" height="26" rx="13" class="lbg"/><text x="521.4" y="343.2" text-anchor="middle" class="lbl">Kaiwara</text><circle cx="521.4" cy="306.2" r="13" class="pin"/><text x="521.4" y="310.7" text-anchor="middle" class="num">4</text></g><g class="node"><rect x="497.8" y="131.0" width="114.4" height="26" rx="13" class="lbg"/><text x="555.0" y="149.0" text-anchor="middle" class="lbl">Kailasagiri</text><circle cx="555.0" cy="112.0" r="13" class="pin"/><text x="555.0" y="116.5" text-anchor="middle" class="num">5</text></g><g class="node"><rect x="502.0" y="228.0" width="106.0" height="26" rx="13" class="lbg"/><text x="555.0" y="246.0" text-anchor="middle" class="lbl">Chintamani</text><circle cx="555.0" cy="209.0" r="13" class="pin"/><text x="555.0" y="213.5" text-anchor="middle" class="num">6</text></g><g class="node"><rect x="221.3" y="278.1" width="114.4" height="26" rx="13" class="lbg"/><text x="278.5" y="296.1" text-anchor="middle" class="lbl">Devanahalli</text><circle cx="278.5" cy="259.1" r="13" class="pin"/><text x="278.5" y="263.6" text-anchor="middle" class="num">7</text></g>
<g><rect x="695" y="18" width="190" height="165" rx="12" class="panel"/><text x="710" y="42" class="lt">Road Trip Route</text><text y="66" class="lg"><tspan x="710" dy="0"><tspan class="lnum">1</tspan>  Bangalore</tspan><tspan x="710" dy="17"><tspan class="lnum">2</tspan>  Hoskote</tspan><tspan x="710" dy="17"><tspan class="lnum">3</tspan>  H Cross</tspan><tspan x="710" dy="17"><tspan class="lnum">4</tspan>  Kaiwara</tspan><tspan x="710" dy="17"><tspan class="lnum">5</tspan>  Kailasagiri</tspan><tspan x="710" dy="17"><tspan class="lnum">6</tspan>  Chintamani</tspan><tspan x="710" dy="17"><tspan class="lnum">7</tspan>  Devanahalli</tspan></text>
<g transform="translate(860,44)"><circle r="14" fill="none" stroke="#fff" stroke-opacity=".4"/><path d="M0-10l5 10-5-4-5 4z" fill="#c8ff00"/><text y="-17" text-anchor="middle" fill="#f0efe9" font-size="10" font-weight="700">N</text></g></g>
<rect x="10" y="536" width="362" height="66" rx="12" class="panel"/>
<g transform="translate(18,562)"><text class="sk" y="0">Total</text><text class="sv" y="26">183 km</text></g><g transform="translate(136,562)"><text class="sk" y="0">Ride time</text><text class="sv" y="26">5–6 hrs</text></g><g transform="translate(254,562)"><text class="sk" y="0">Difficulty</text><text class="sv" y="26">Easy</text></g>
</svg>