<svg class="rt-map" viewBox="0 0 900 640" xmlns="http://www.w3.org/2000/svg" role="img" aria-label="Schematic route map of Karadi Gavi Betta">
<defs>
<linearGradient id="bg-karadigavibetta" x1="0" y1="0" x2="0" y2="1"><stop offset="0" stop-color="#16161a"/><stop offset="1" stop-color="#0a0a0b"/></linearGradient>
<filter id="glow-karadigavibetta" x="-20%" y="-20%" width="140%" height="140%"><feGaussianBlur stdDeviation="6" result="b"/><feMerge><feMergeNode in="b"/><feMergeNode in="SourceGraphic"/></feMerge></filter>
<pattern id="grid-karadigavibetta" width="40" height="40" patternUnits="userSpaceOnUse"><path d="M40 0H0V40" fill="none" stroke="#ffffff" stroke-opacity="0.04"/></pattern>
</defs>
<style>
.rt-map .seg rect{fill:#111113;stroke:#5b9aff;stroke-opacity:.55}
.rt-map .seg text{fill:#cfe0ff;font:500 12px/1 ui-monospace,Menlo,Consolas,monospace;text-anchor:middle}
.rt-map .lbg{fill:#111113;fill-opacity:.94;stroke:#ffffff;stroke-opacity:.1}
.rt-map .lbl{fill:#f0efe9;font:600 14px/1 system-ui,-apple-system,Segoe UI,sans-serif}
.rt-map .pin{fill:#c8ff00;stroke:#0a0a0b;stroke-width:3}
.rt-map .num{fill:#0a0a0b;font:800 13px/1 system-ui,-apple-system,Segoe UI,sans-serif}
.rt-map .lt{fill:#c8ff00;font:italic 400 19px/1 Georgia,"Times New Roman",serif}
.rt-map .lg{fill:#f0efe9;font:500 12.5px/1 system-ui,-apple-system,Segoe UI,sans-serif}
.rt-map .lnum{fill:#c8ff00;font-weight:700}
.rt-map .sk{fill:rgba(240,239,233,.5);font:500 10.5px/1 ui-monospace,Menlo,Consolas,monospace;letter-spacing:.08em;text-transform:uppercase}
.rt-map .sv{fill:#f0efe9;font:700 19px/1 system-ui,-apple-system,Segoe UI,sans-serif}
.rt-map .panel{fill:#111113;fill-opacity:.9;stroke:#ffffff;stroke-opacity:.1}
</style>
<rect width="900" height="640" rx="16" fill="url(#bg-karadigavibetta)"/>
<rect width="900" height="640" rx="16" fill="url(#grid-karadigavibetta)"/>
<path d="M 555.0 112.0 C 522.3 138.6, 422.8 211.7, 373.2 259.7 C 323.7 307.6, 277.9 342.1, 279.6 378.6 C 281.2 415.0, 364.0 447.0, 382.6 462.0" fill="none" stroke="#5b9aff" stroke-width="14" stroke-opacity=".3" stroke-linecap="round" stroke-linejoin="round" filter="url(#glow-karadigavibetta)"/>
<path d="M 555.0 112.0 C 522.3 138.6, 422.8 211.7, 373.2 259.7 C 323.7 307.6, 277.9 342.1, 279.6 378.6 C 281.2 415.0, 364.0 447.0, 382.6 462.0" fill="none" stroke="#8ab8ff" stroke-width="5" stroke-linecap="round" stroke-linejoin="round"/>
<path d="M 555.0 112.0 C 522.3 138.6, 422.8 211.7, 373.2 259.7 C 323.7 307.6, 277.9 342.1, 279.6 378.6 C 281.2 415.0, 364.0 447.0, 382.6 462.0" fill="none" stroke="#ffffff" stroke-width="1.6" stroke-dasharray="7 9" stroke-linecap="round" stroke-opacity=".8"/>
<g class="seg"><rect x="419.0" y="156.2" width="60" height="22" rx="11"/><text x="449.0" y="171.2">~35 km</text></g><g class="seg"><rect x="265.0" y="283.4" width="60" height="22" rx="11"/><text x="295.0" y="298.4">~13 km</text></g><g class="seg"><rect x="286.0" y="427.9" width="60" height="22" rx="11"/><text x="316.0" y="442.9">~17 km</text></g>
<g class="node"><rect x="506.2" y="131.0" width="97.6" height="26" rx="13" class="lbg"/><text x="555.0" y="149.0" text-anchor="middle" class="lbl">Bengaluru</text><circle cx="555.0" cy="112.0" r="13" class="pin"/><text x="555.0" y="116.5" text-anchor="middle" class="num">1</text></g><g class="node"><rect x="337.0" y="278.7" width="72.4" height="26" rx="13" class="lbg"/><text x="373.2" y="296.7" text-anchor="middle" class="lbl">Bidadi</text><circle cx="373.2" cy="259.7" r="13" class="pin"/><text x="373.2" y="264.2" text-anchor="middle" class="num">2</text></g><g class="node"><rect x="226.6" y="397.6" width="106.0" height="26" rx="13" class="lbg"/><text x="279.6" y="415.6" text-anchor="middle" class="lbl">Ramanagara</text><circle cx="279.6" cy="378.6" r="13" class="pin"/><text x="279.6" y="383.1" text-anchor="middle" class="num">3</text></g><g class="node"><rect x="300.2" y="481.0" width="164.8" height="26" rx="13" class="lbg"/><text x="382.6" y="499.0" text-anchor="middle" class="lbl">Karadi Gavi Betta</text><circle cx="382.6" cy="462.0" r="13" class="pin"/><text x="382.6" y="466.5" text-anchor="middle" class="num">4</text></g>
<g><rect x="695" y="18" width="190" height="114" rx="12" class="panel"/><text x="710" y="42" class="lt">Road Trip Route</text><text y="66" class="lg"><tspan x="710" dy="0"><tspan class="lnum">1</tspan>  Bengaluru</tspan><tspan x="710" dy="17"><tspan class="lnum">2</tspan>  Bidadi</tspan><tspan x="710" dy="17"><tspan class="lnum">3</tspan>  Ramanagara</tspan><tspan x="710" dy="17"><tspan class="lnum">4</tspan>  Karadi Gavi Betta</tspan></text>
<g transform="translate(860,44)"><circle r="14" fill="none" stroke="#fff" stroke-opacity=".4"/><path d="M0-10l5 10-5-4-5 4z" fill="#c8ff00"/><text y="-17" text-anchor="middle" fill="#f0efe9" font-size="10" font-weight="700">N</text></g></g>
<rect x="10" y="536" width="362" height="66" rx="12" class="panel"/>
<g transform="translate(18,562)"><text class="sk" y="0">Each way</text><text class="sv" y="26">65 km</text></g><g transform="translate(136,562)"><text class="sk" y="0">Ride time</text><text class="sv" y="26">~1.5 hrs</text></g><g transform="translate(254,562)"><text class="sk" y="0">Difficulty</text><text class="sv" y="26">Easy</text></g>
</svg>