<svg class="rt-map" viewBox="0 0 900 640" xmlns="http://www.w3.org/2000/svg" role="img" aria-label="Schematic route map of Mallappa Konda">
<defs>
<linearGradient id="bg-mallappakonda" x1="0" y1="0" x2="0" y2="1"><stop offset="0" stop-color="#16161a"/><stop offset="1" stop-color="#0a0a0b"/></linearGradient>
<filter id="glow-mallappakonda" x="-20%" y="-20%" width="140%" height="140%"><feGaussianBlur stdDeviation="6" result="b"/><feMerge><feMergeNode in="b"/><feMergeNode in="SourceGraphic"/></feMerge></filter>
<pattern id="grid-mallappakonda" width="40" height="40" patternUnits="userSpaceOnUse"><path d="M40 0H0V40" fill="none" stroke="#ffffff" stroke-opacity="0.04"/></pattern>
</defs>
<style>
.rt-map .seg rect{fill:#111113;stroke:#5b9aff;stroke-opacity:.55}
.rt-map .seg text{fill:#cfe0ff;font:500 12px/1 ui-monospace,Menlo,Consolas,monospace;text-anchor:middle}
.rt-map .lbg{fill:#111113;fill-opacity:.94;stroke:#ffffff;stroke-opacity:.1}
.rt-map .lbl{fill:#f0efe9;font:600 14px/1 system-ui,-apple-system,Segoe UI,sans-serif}
.rt-map .pin{fill:#c8ff00;stroke:#0a0a0b;stroke-width:3}
.rt-map .num{fill:#0a0a0b;font:800 13px/1 system-ui,-apple-system,Segoe UI,sans-serif}
.rt-map .lt{fill:#c8ff00;font:italic 400 19px/1 Georgia,"Times New Roman",serif}
.rt-map .lg{fill:#f0efe9;font:500 12.5px/1 system-ui,-apple-system,Segoe UI,sans-serif}
.rt-map .lnum{fill:#c8ff00;font-weight:700}
.rt-map .sk{fill:rgba(240,239,233,.5);font:500 10.5px/1 ui-monospace,Menlo,Consolas,monospace;letter-spacing:.08em;text-transform:uppercase}
.rt-map .sv{fill:#f0efe9;font:700 19px/1 system-ui,-apple-system,Segoe UI,sans-serif}
.rt-map .panel{fill:#111113;fill-opacity:.9;stroke:#ffffff;stroke-opacity:.1}
</style>
<rect width="900" height="640" rx="16" fill="url(#bg-mallappakonda)"/>
<rect width="900" height="640" rx="16" fill="url(#grid-mallappakonda)"/>
<path d="M 132.7 253.4 C 158.9 228.0, 220.4 131.9, 277.9 112.0 C 335.3 92.1, 364.9 122.7, 451.9 143.1 C 538.8 163.6, 704.1 168.1, 760.9 225.5 C 817.7 282.9, 766.1 419.4, 767.3 462.0" fill="none" stroke="#5b9aff" stroke-width="14" stroke-opacity=".3" stroke-linecap="round" stroke-linejoin="round" filter="url(#glow-mallappakonda)"/>
<path d="M 132.7 253.4 C 158.9 228.0, 220.4 131.9, 277.9 112.0 C 335.3 92.1, 364.9 122.7, 451.9 143.1 C 538.8 163.6, 704.1 168.1, 760.9 225.5 C 817.7 282.9, 766.1 419.4, 767.3 462.0" fill="none" stroke="#8ab8ff" stroke-width="5" stroke-linecap="round" stroke-linejoin="round"/>
<path d="M 132.7 253.4 C 158.9 228.0, 220.4 131.9, 277.9 112.0 C 335.3 92.1, 364.9 122.7, 451.9 143.1 C 538.8 163.6, 704.1 168.1, 760.9 225.5 C 817.7 282.9, 766.1 419.4, 767.3 462.0" fill="none" stroke="#ffffff" stroke-width="1.6" stroke-dasharray="7 9" stroke-linecap="round" stroke-opacity=".8"/>
<g class="seg"><rect x="158.6" y="154.5" width="60" height="22" rx="11"/><text x="188.6" y="169.5">~30 km</text></g><g class="seg"><rect x="339.1" y="92.9" width="60" height="22" rx="11"/><text x="369.1" y="107.9">~22 km</text></g><g class="seg"><rect x="582.6" y="150.1" width="60" height="22" rx="11"/><text x="612.6" y="165.1">~33 km</text></g><g class="seg"><rect x="758.1" y="332.1" width="60" height="22" rx="11"/><text x="788.1" y="347.1">~30 km</text></g>
<g class="node"><rect x="83.9" y="272.4" width="97.6" height="26" rx="13" class="lbg"/><text x="132.7" y="290.4" text-anchor="middle" class="lbl">Bengaluru</text><circle cx="132.7" cy="253.4" r="13" class="pin"/><text x="132.7" y="257.9" text-anchor="middle" class="num">1</text></g><g class="node"><rect x="237.5" y="131.0" width="80.8" height="26" rx="13" class="lbg"/><text x="277.9" y="149.0" text-anchor="middle" class="lbl">Hoskote</text><circle cx="277.9" cy="112.0" r="13" class="pin"/><text x="277.9" y="116.5" text-anchor="middle" class="num">2</text></g><g class="node"><rect x="419.9" y="162.1" width="64.0" height="26" rx="13" class="lbg"/><text x="451.9" y="180.1" text-anchor="middle" class="lbl">Malur</text><circle cx="451.9" cy="143.1" r="13" class="pin"/><text x="451.9" y="147.6" text-anchor="middle" class="num">3</text></g><g class="node"><rect x="712.1" y="244.5" width="97.6" height="26" rx="13" class="lbg"/><text x="760.9" y="262.5" text-anchor="middle" class="lbl">Bangarpet</text><circle cx="760.9" cy="225.5" r="13" class="pin"/><text x="760.9" y="230.0" text-anchor="middle" class="num">4</text></g><g class="node"><rect x="697.5" y="481.0" width="139.6" height="26" rx="13" class="lbg"/><text x="767.3" y="499.0" text-anchor="middle" class="lbl">Mallappa Konda</text><circle cx="767.3" cy="462.0" r="13" class="pin"/><text x="767.3" y="466.5" text-anchor="middle" class="num">5</text></g>
<g><rect x="695" y="18" width="190" height="131" rx="12" class="panel"/><text x="710" y="42" class="lt">Road Trip Route</text><text y="66" class="lg"><tspan x="710" dy="0"><tspan class="lnum">1</tspan>  Bengaluru</tspan><tspan x="710" dy="17"><tspan class="lnum">2</tspan>  Hoskote</tspan><tspan x="710" dy="17"><tspan class="lnum">3</tspan>  Malur</tspan><tspan x="710" dy="17"><tspan class="lnum">4</tspan>  Bangarpet</tspan><tspan x="710" dy="17"><tspan class="lnum">5</tspan>  Mallappa Konda</tspan></text>
<g transform="translate(860,44)"><circle r="14" fill="none" stroke="#fff" stroke-opacity=".4"/><path d="M0-10l5 10-5-4-5 4z" fill="#c8ff00"/><text y="-17" text-anchor="middle" fill="#f0efe9" font-size="10" font-weight="700">N</text></g></g>
<rect x="10" y="536" width="362" height="66" rx="12" class="panel"/>
<g transform="translate(18,562)"><text class="sk" y="0">Each way</text><text class="sv" y="26">115 km</text></g><g transform="translate(136,562)"><text class="sk" y="0">Ride time</text><text class="sv" y="26">~2.5 hrs</text></g><g transform="translate(254,562)"><text class="sk" y="0">Difficulty</text><text class="sv" y="26">Moderate</text></g>
</svg>